REM DIRINDEX 1\5,1\2\6,1\2\7,1\3\8,1\3\9,1\4\10,1\4\11,1\4\12
REM DIRNAME folder01,folder02,folder03,folder04,folder05,folder06,folder07,folder08,folder09,folder10,folder11,folder12
TITLE ""
FILE "EJE_DB3000_5th_3B_22.mp3" MP3
  TRACK 01 AUDIO
    TITLE "0:"
    INDEX 01 00:00:00
  TRACK 02 AUDIO
    TITLE "10:cjc026_09009"
    INDEX 01 00:00:05
  TRACK 03 AUDIO
    TITLE "0:"
    INDEX 01 00:00:72
  TRACK 04 AUDIO
    TITLE "11:cjc026_09010"
    INDEX 01 00:01:26
  TRACK 05 AUDIO
    TITLE "0:"
    INDEX 01 00:02:47
  TRACK 06 AUDIO
    TITLE "12:cjc026_09011"
    INDEX 01 00:02:73
  TRACK 07 AUDIO
    TITLE "0:"
    INDEX 01 00:03:64
  TRACK 08 AUDIO
    TITLE "10:cjc026_09012"
    INDEX 01 00:04:19
  TRACK 09 AUDIO
    TITLE "0:"
    INDEX 01 00:05:20
  TRACK 10 AUDIO
    TITLE "11:cjc026_09013"
    INDEX 01 00:05:48
  TRACK 11 AUDIO
    TITLE "0:"
    INDEX 01 00:06:35
  TRACK 12 AUDIO
    TITLE "12:cjc026_09014"
    INDEX 01 00:06:63
  TRACK 13 AUDIO
    TITLE "0:"
    INDEX 01 00:07:64
  TRACK 14 AUDIO
    TITLE "10:cjc026_09015"
    INDEX 01 00:08:17
  TRACK 15 AUDIO
    TITLE "0:"
    INDEX 01 00:09:20
  TRACK 16 AUDIO
    TITLE "11:cjc026_09016"
    INDEX 01 00:09:45
  TRACK 17 AUDIO
    TITLE "0:"
    INDEX 01 00:10:41
  TRACK 18 AUDIO
    TITLE "12:cjc026_09017"
    INDEX 01 00:10:66
  TRACK 19 AUDIO
    TITLE "0:"
    INDEX 01 00:11:70
  TRACK 20 AUDIO
    TITLE "10:cjc026_09018"
    INDEX 01 00:12:20
  TRACK 21 AUDIO
    TITLE "0:"
    INDEX 01 00:13:24
  TRACK 22 AUDIO
    TITLE "11:cjc026_09019"
    INDEX 01 00:13:49
  TRACK 23 AUDIO
    TITLE "0:"
    INDEX 01 00:14:51
  TRACK 24 AUDIO
    TITLE "12:cjc026_09020"
    INDEX 01 00:15:01
  TRACK 25 AUDIO
    TITLE "0:"
    INDEX 01 00:16:02
  TRACK 26 AUDIO
    TITLE "10:cjc026_09021"
    INDEX 01 00:16:30
  TRACK 27 AUDIO
    TITLE "0:"
    INDEX 01 00:18:62
  TRACK 28 AUDIO
    TITLE "11:cjc026_09022"
    INDEX 01 00:19:15
  TRACK 29 AUDIO
    TITLE "0:"
    INDEX 01 00:20:47
  TRACK 30 AUDIO
    TITLE "12:cjc026_09023"
    INDEX 01 00:20:73
  TRACK 31 AUDIO
    TITLE "0:"
    INDEX 01 00:23:32
  TRACK 32 AUDIO
    TITLE "10:cjc026_09024"
    INDEX 01 00:23:57
  TRACK 33 AUDIO
    TITLE "0:"
    INDEX 01 00:24:61
  TRACK 34 AUDIO
    TITLE "11:cjc026_09025"
    INDEX 01 00:25:13
  TRACK 35 AUDIO
    TITLE "0:"
    INDEX 01 00:26:69
  TRACK 36 AUDIO
    TITLE "12:cjc026_09026"
    INDEX 01 00:27:20
  TRACK 37 AUDIO
    TITLE "0:"
    INDEX 01 00:28:25
  TRACK 38 AUDIO
    TITLE "10:cjc026_09027"
    INDEX 01 00:28:53
  TRACK 39 AUDIO
    TITLE "0:"
    INDEX 01 00:29:52
  TRACK 40 AUDIO
    TITLE "11:cjc026_09028"
    INDEX 01 00:30:05
  TRACK 41 AUDIO
    TITLE "0:"
    INDEX 01 00:31:08
  TRACK 42 AUDIO
    TITLE "12:cjc026_09029"
    INDEX 01 00:31:35
  TRACK 43 AUDIO
    TITLE "0:"
    INDEX 01 00:32:33
  TRACK 44 AUDIO
    TITLE "10:cjc026_09030"
    INDEX 01 00:32:62
  TRACK 45 AUDIO
    TITLE "0:"
    INDEX 01 00:33:62
  TRACK 46 AUDIO
    TITLE "11:cjc026_09031"
    INDEX 01 00:34:16
  TRACK 47 AUDIO
    TITLE "0:"
    INDEX 01 00:35:29
  TRACK 48 AUDIO
    TITLE "12:cjc026_09032"
    INDEX 01 00:35:57
  TRACK 49 AUDIO
    TITLE "0:"
    INDEX 01 00:36:58
  TRACK 50 AUDIO
    TITLE "10:cjc026_09033"
    INDEX 01 00:37:10
  TRACK 51 AUDIO
    TITLE "0:"
    INDEX 01 00:38:12
  TRACK 52 AUDIO
    TITLE "11:cjc026_09034"
    INDEX 01 00:38:37
  TRACK 53 AUDIO
    TITLE "0:"
    INDEX 01 00:39:52
  TRACK 54 AUDIO
    TITLE "12:cjc026_09035"
    INDEX 01 00:40:03
  TRACK 55 AUDIO
    TITLE "0:"
    INDEX 01 00:41:06
  TRACK 56 AUDIO
    TITLE "10:cjc026_09036"
    INDEX 01 00:41:32
  TRACK 57 AUDIO
    TITLE "0:"
    INDEX 01 00:42:29
  TRACK 58 AUDIO
    TITLE "11:cjc026_09037"
    INDEX 01 00:42:57
  TRACK 59 AUDIO
    TITLE "0:"
    INDEX 01 00:44:36
  TRACK 60 AUDIO
    TITLE "12:cjc026_09038"
    INDEX 01 00:44:61
  TRACK 61 AUDIO
    TITLE "0:"
    INDEX 01 00:45:59
  TRACK 62 AUDIO
    TITLE "10:cjc026_09039"
    INDEX 01 00:46:11
  TRACK 63 AUDIO
    TITLE "0:"
    INDEX 01 00:47:25
  TRACK 64 AUDIO
    TITLE "11:cjc026_09040"
    INDEX 01 00:47:52
  TRACK 65 AUDIO
    TITLE "0:"
    INDEX 01 00:48:46
  TRACK 66 AUDIO
    TITLE "12:cjc026_09041"
    INDEX 01 00:48:71
  TRACK 67 AUDIO
    TITLE "0:"
    INDEX 01 00:50:11
  TRACK 68 AUDIO
    TITLE "10:cjc026_09042"
    INDEX 01 00:50:39
  TRACK 69 AUDIO
    TITLE "0:"
    INDEX 01 00:51:28
  TRACK 70 AUDIO
    TITLE "11:cjc026_09043"
    INDEX 01 00:51:60
  TRACK 71 AUDIO
    TITLE "0:"
    INDEX 01 00:53:04
  TRACK 72 AUDIO
    TITLE "12:cjc026_09044"
    INDEX 01 00:53:31
  TRACK 73 AUDIO
    TITLE "0:"
    INDEX 01 00:54:19
  TRACK 74 AUDIO
    TITLE "10:cjc026_09045"
    INDEX 01 00:54:52
  TRACK 75 AUDIO
    TITLE "0:"
    INDEX 01 00:56:59
  TRACK 76 AUDIO
    TITLE "11:cjc026_09046"
    INDEX 01 00:57:11
  TRACK 77 AUDIO
    TITLE "0:"
    INDEX 01 00:58:52
  TRACK 78 AUDIO
    TITLE "12:cjc026_09047"
    INDEX 01 00:59:02
  TRACK 79 AUDIO
    TITLE "0:"
    INDEX 01 01:01:11
